<svg
  aria-hidden="true"
  style="position: absolute; width: 0; height: 0; overflow: hidden;"
  version="1.1"
  xmlns="http://www.w3.org/2000/svg"
  xmlns:xlink="http://www.w3.org/1999/xlink"
>
  <defs>
    <symbol id="icon-Vector-button-white" viewBox="0 0 26 32">
<path
        fill="none"
        stroke="#fff"
        style="stroke: var(--color1, #fff)"
        stroke-linejoin="round"
        stroke-linecap="round"
        stroke-miterlimit="4"
        stroke-width="6.4"
        d="M5.172 3.2l14.169 12.8-14.169 12.8"
      />
</symbol>
    <symbol id="icon-arrow-right-solid" viewBox="0 0 28 32">
      <path
        d="M27.413 17.413l-10 10c-0.387 0.394-0.9 0.587-1.413 0.587s-1.024-0.195-1.414-0.586c-0.781-0.781-0.781-2.047 0-2.828l6.589-6.586h-19.175c-1.104 0-2-0.894-2-2s0.896-2 2-2h19.175l-6.588-6.588c-0.781-0.781-0.781-2.047 0-2.828s2.047-0.781 2.828 0l10 10c0.778 0.784 0.778 2.047-0.003 2.828z"
      />
    </symbol>
    <symbol id="icon-hero-ellipse-desctop" viewBox="0 0 32 32">
      <path
        d="M32 16c0 8.837-7.163 16-16 16s-16-7.163-16-16c0-8.837 7.163-16 16-16s16 7.163 16 16z"
      />
    </symbol>
    <symbol id="icon-hero-ellipse-tab" viewBox="0 0 32 32">
      <path
        d="M0 16c0 8.837 7.163 16 16 16s16-7.163 16-16c0-8.837-7.163-16-16-16s-16 7.163-16 16z"
      />
    </symbol>
    <symbol id="icon-products-ellipse" viewBox="0 0 32 32">
      <path
        d="M32 16c0 8.837-7.163 16-16 16s-16-7.163-16-16c0-8.837 7.163-16 16-16s16 7.163 16 16z"
      />
    </symbol>
    <symbol id="icon-reviews-house-red" viewBox="0 0 35 32">
      <path
        d="M32.64 15.401c0.599-0.65 0.541-1.646-0.129-2.225l-14.772-12.75c-0.671-0.578-1.745-0.566-2.402 0.027l-14.822 13.403c-0.656 0.594-0.689 1.589-0.071 2.222l0.372 0.382c0.617 0.633 1.613 0.708 2.224 0.168l1.108-0.979v14.326c0 0.879 0.722 1.591 1.612 1.591h5.778c0.89 0 1.612-0.712 1.612-1.591v-10.023h7.37v10.023c-0.013 0.878 0.624 1.59 1.515 1.59h6.123c0.89 0 1.613-0.711 1.613-1.59v-14.124c0 0 0.306 0.264 0.683 0.592s1.168 0.065 1.767-0.586l0.42-0.455z"
      />
    </symbol>
    <symbol id="icon-reviews-quotes" viewBox="0 0 43 32">
      <path
        fill="#e1e1e1"
        style="fill: var(--color1, #e1e1e1)"
        d="M32.014 0c1.928 0 3.75 0.52 5.464 1.561s3.107 2.536 4.178 4.488c1.029 1.951 1.543 4.25 1.543 6.894s-0.643 5.225-1.928 7.74c-0.429 0.91-1.2 2.081-2.315 3.512-1.157 1.43-2.228 2.666-3.214 3.707l-4.050 4.098-2.893-4.813c2.063-1.302 3.824-2.855 5.306-4.646l0.030-0.037c1.542-1.821 2.314-3.49 2.314-5.008 0-0.781-0.171-1.41-0.514-1.886-1.5 1.084-3.172 1.626-5.014 1.626-1.328 0-2.593-0.412-3.793-1.236-1.237-0.782-2.237-1.834-2.935-3.078l-0.022-0.043c-0.771-1.258-1.157-2.558-1.157-3.902 0-1.518 0.45-2.97 1.35-4.358 0.866-1.389 2.011-2.526 3.364-3.356l0.044-0.025c1.37-0.824 2.784-1.236 4.242-1.236zM8.936 0c1.928 0 3.75 0.52 5.464 1.561s3.107 2.536 4.178 4.488c1.029 1.951 1.543 4.25 1.543 6.894 0 1.864-0.236 3.534-0.707 5.008-0.472 1.518-1.286 3.1-2.443 4.748-1.114 1.561-2.164 2.862-3.15 3.902-0.986 1.084-2.7 2.883-5.143 5.398l-2.893-4.813c2.063-1.302 3.824-2.855 5.306-4.646l0.030-0.037c1.542-1.821 2.314-3.49 2.314-5.008 0-0.781-0.172-1.41-0.514-1.886-1.5 1.084-3.172 1.626-5.014 1.626-1.328 0-2.593-0.412-3.793-1.236-1.237-0.782-2.237-1.834-2.935-3.078l-0.022-0.043c-0.771-1.258-1.157-2.558-1.157-3.902 0-1.518 0.429-2.97 1.286-4.358 0.866-1.389 2.011-2.526 3.364-3.356l0.045-0.025c1.37-0.824 2.784-1.236 4.242-1.236z"
      >
      </path>
    </symbol>
    <symbol id="icon-reviews-dot-group" viewBox="0 0 256 32">
      <path
        fill="#c7133e"
        style="fill: var(--color1, #c7133e)"
        d="M144 16c0 8.837-7.163 16-16 16s-16-7.163-16-16c0-8.837 7.163-16 16-16s16 7.163 16 16z"
      />
      <path
        fill="#c7133e"
        style="fill: var(--color1, #c7133e)"
        d="M32 16c0 8.837-7.163 16-16 16s-16-7.163-16-16c0-8.837 7.163-16 16-16s16 7.163 16 16z"
      />
      <path
        fill="#c7133e"
        style="fill: var(--color1, #c7133e)"
        d="M256 16c0 8.837-7.163 16-16 16s-16-7.163-16-16c0-8.837 7.163-16 16-16s16 7.163 16 16z"
      />
    </symbol>
    <symbol id="icon-close" viewBox="0 0 32 32">
<path
        d="M32 3.223l-3.223-3.223-12.777 12.777-12.777-12.777-3.223 3.223 12.777 12.777-12.777 12.777 3.223 3.223 12.777-12.777 12.777 12.777 3.223-3.223-12.777-12.777 12.777-12.777z"
      />
</symbol>
    <symbol id="icon-social-networks1" viewBox="0 0 32 32">
      <path
        d="M16 0c-8.788 0-16 7.212-16 16 0 7.499 5.262 14.312 12.25 16v-5.293c-0.692 0.152-1.33 0.156-2.034-0.052-0.946-0.279-1.714-0.909-2.284-1.869-0.364-0.613-1.008-1.278-1.68-1.23l-0.165-1.868c1.453-0.124 2.711 0.886 3.457 2.14 0.332 0.558 0.713 0.884 1.203 1.029 0.473 0.14 0.982 0.072 1.574-0.137 0.149-1.186 0.692-1.63 1.102-2.255v-0.001c-4.167-0.622-5.828-2.832-6.488-4.578-0.874-2.317-0.405-5.212 1.14-7.041 0.030-0.036 0.084-0.129 0.063-0.194-0.708-2.139 0.155-3.909 0.187-4.097 0.817 0.242 0.95-0.243 3.551 1.337l0.449 0.27c0.188 0.112 0.129 0.048 0.317 0.034 1.086-0.295 2.23-0.458 3.358-0.472 1.136 0.015 2.273 0.178 3.404 0.484l0.145 0.015c-0.013-0.002 0.040-0.009 0.127-0.062 3.248-1.968 3.132-1.324 4.003-1.608 0.032 0.188 0.883 1.987 0.182 4.099-0.095 0.291 2.816 2.956 1.203 7.235-0.659 1.746-2.32 3.957-6.487 4.578v0.001c0.534 0.814 1.176 1.247 1.173 2.927v6.608c6.988-1.688 12.25-8.501 12.25-16 0-8.788-7.212-16-16-16v0z"
      />
    </symbol>
    <symbol id="icon-social-networks2" viewBox="0 0 44 32">
      <path
        d="M17.343 21.048l-0.675 8.86c0.966 0 1.384-0.387 1.885-0.852l4.527-4.038 9.381 6.412c1.72 0.895 2.933 0.424 3.397-1.477l6.157-26.929 0.002-0.002c0.546-2.374-0.92-3.302-2.596-2.72l-36.194 12.933c-2.47 0.895-2.433 2.18-0.42 2.762l9.253 2.686 21.494-12.552c1.011-0.625 1.931-0.279 1.175 0.346l-17.386 14.57z"
      />
    </symbol>
    <symbol id="icon-social-networks3" viewBox="0 0 16 32">
      <path
        d="M14.143 15.972h-4.034v14.865h-6.112v-14.865h-2.907v-5.224h2.907v-3.381c0-2.418 1.142-6.203 6.166-6.203l4.527 0.019v5.071h-3.285c-0.539 0-1.296 0.271-1.296 1.424v3.075h4.567l-0.534 5.219z"
      />
    </symbol>
    <symbol id="icon-vector-button" viewBox="0 0 22 32">
      <path
        fill="none"
        stroke="#d41443"
        style="stroke: var(--color6, #d41443)"
        stroke-linejoin="round"
        stroke-linecap="round"
        stroke-miterlimit="4"
        stroke-width="6.4"
        d="M5.575 3.2l12.88 12.8-12.88 12.8"
      />
    </symbol>
    <symbol id="icon-menu-gamburg" viewBox="0 0 48 32">
      <path
        d="M0 5.333v-5.333h48v5.333h-48zM0 18.667h48v-5.333h-48v5.333zM0 32h48v-5.333h-48v5.333z"
      />
    </symbol>
    <symbol id="icon-checkbox-blu" viewBox="0 0 34 32">
      <path
        d="M4.267 0h25.6c2.356 0 4.267 1.91 4.267 4.267v23.467c0 2.356-1.91 4.267-4.267 4.267h-25.6c-2.356 0-4.267-1.91-4.267-4.267v-23.467c0-2.356 1.91-4.267 4.267-4.267z"
      />
      <path
        d="M8.442 16.537l-0.147-0.14-2.205 2.088 7.767 7.41 16.318-15.567-2.19-2.089-14.128 13.465-5.416-5.167z"
      />
    </symbol>
    <symbol id="icon-checkbox-border" viewBox="0 0 34 32">
      <path
        d="M30.341 3.556v24.889h-26.548v-24.889h26.548zM30.341 0h-26.548c-2.086 0-3.793 1.6-3.793 3.556v24.889c0 1.956 1.707 3.556 3.793 3.556h26.548c2.086 0 3.793-1.6 3.793-3.556v-24.889c0-1.956-1.707-3.556-3.793-3.556z"
      />
    </symbol>
    <symbol id="icon-close1" viewBox="0 0 32 32">
      <path
        d="M32 3.223l-3.223-3.223-12.777 12.777-12.777-12.777-3.223 3.223 12.777 12.777-12.777 12.777 3.223 3.223 12.777-12.777 12.777 12.777 3.223-3.223-12.777-12.777 12.777-12.777z"
      />
    </symbol>
    <symbol id="icon-close" viewBox="0 0 32 32">
      <path
        d="M32 16c0 8.837-7.163 16-16 16s-16-7.163-16-16c0-8.837 7.163-16 16-16s16 7.163 16 16z"
      />
      <path
        d="M31.467 16c0 8.542-6.925 15.467-15.467 15.467s-15.467-6.925-15.467-15.467c0-8.542 6.925-15.467 15.467-15.467s15.467 6.925 15.467 15.467z"
      />
      <path
        d="M22.4 10.782l-1.182-1.182-4.685 4.685-4.685-4.685-1.182 1.182 4.685 4.685-4.685 4.685 1.182 1.182 4.685-4.685 4.685 4.685 1.182-1.182-4.685-4.685 4.685-4.685z"
      />
    </symbol>
    
    <symbol id="icon-mod-email" viewBox="0 0 32 32">
    <path
        d="M26.667 5.333H5.334c-1.467 0-2.653 1.2-2.653 2.667l-.013 16c0 1.467 1.2 2.667 2.667 2.667h21.333c1.467 0 2.667-1.2 2.667-2.667V8c0-1.467-1.2-2.667-2.667-2.667zM26.133 11l-9.427 5.893c-.427.267-.987.267-1.413 0L5.866 11c-.333-.213-.533-.573-.533-.96 0-.893.973-1.427 1.733-.96l8.933 5.587 8.933-5.587c.76-.467 1.733.067 1.733.96 0 .387-.2.747-.533.96z"
      /></symbol>
    <symbol id="icon-mod-phone" viewBox="0 0 32 32">
    <path
        d="m24.882 19.773-3.268-.373c-.785-.09-1.557.18-2.11.733L17.137 22.5c-3.641-1.853-6.626-4.825-8.478-8.478l2.38-2.38c.553-.553.823-1.325.733-2.11l-.373-3.242c-.154-1.299-1.248-2.277-2.56-2.277H6.613c-1.454 0-2.663 1.209-2.573 2.663.682 10.987 9.469 19.761 20.443 20.443 1.454.09 2.663-1.119 2.663-2.573V22.32c.013-1.3-.965-2.393-2.264-2.547z"
      /></symbol>
    <symbol id="icon-mod-person" viewBox="0 0 32 32">
    <path
        d="M16 16c2.947 0 5.333-2.387 5.333-5.333S18.946 5.334 16 5.334c-2.947 0-5.333 2.387-5.333 5.333S13.054 16 16 16zm0 2.667c-3.56 0-10.667 1.787-10.667 5.333v1.333c0 .733.6 1.333 1.333 1.333h18.667c.733 0 1.333-.6 1.333-1.333V24c0-3.547-7.107-5.333-10.667-5.333z"
      /></symbol>
    <symbol id="icon-mod-check" viewBox="0 0 42 32">
    <path
        fill="#fff"
        style="fill:var(--color1, #fff);stroke:var(--color1, #fff)"
        stroke="#fff"
        stroke-width=".64"
        d="m6.263 15.205-.22-.21-3.307 3.132 11.651 11.114L38.864 5.89l-3.285-3.134-21.192 20.197-8.124-7.75z"
      /></symbol>
  </defs>
</svg>
